<svg width="253" height="78" viewBox="0 0 253 78" fill="none" xmlns="http://www.w3.org/2000/svg">
<g clip-path="url(#clip0_2681_1791)">
<path d="M84.6465 17.2803H48.5703V27.1229H61.7147V54.0327H71.5629V27.1229H84.6465V17.2803Z" fill="white"/>
<path d="M10.6494 42.0085L29.2504 25.5196V38.244L10.6494 43.9567V42.0085ZM23.6215 17.2803L0 38.5382V54.0327H9.42221L29.2504 48.0155V54.0327H39.342V17.2803H23.6215Z" fill="white"/>
<path d="M225.616 26.6358H239.997L225.616 39.9994V26.6358ZM215.352 17.2803V54.0327H248.547V44.2003H234.896L253 27.1127V17.2803H215.352Z" fill="white"/>
<path d="M239.613 0.00711482L225.461 4.7334L228.48 13.7808L242.631 9.05451L239.613 0.00711482Z" fill="white"/>
<path d="M184.042 44.18V17.2803H174.031V54.0327H207.602V44.18H184.042Z" fill="white"/>
<path d="M164.511 35.4531L160.941 16.4072L151.022 18.2235L153.314 30.1361H102.846L105.148 18.2235L95.2287 16.4072L91.6484 35.4531L95.2287 54.5092L105.148 52.6929L102.825 40.6484H153.344L151.022 52.6929L160.941 54.5092L164.511 35.4531Z" fill="white"/>
<path d="M21.9453 69.3955H25.982V70.5218H23.2334V72.5918H25.7284V73.7384H23.2334V75.6461H21.9453V69.3955Z" fill="white"/>
<path d="M35.2734 69.3955H37.1903C39.1174 69.3955 40.4866 70.674 40.4866 72.5208C40.4866 74.3675 39.1275 75.6461 37.1903 75.6461H35.2734V69.3955ZM37.1295 74.5197C38.519 74.5197 39.1478 73.6877 39.1478 72.5208C39.1478 71.3539 38.5088 70.5218 37.1295 70.5218H36.5615V74.5096H37.1295V74.5197Z" fill="white"/>
<path d="M54.4015 75.6461H52.9106L51.8862 74.0631C51.7645 74.0834 51.6326 74.0936 51.5211 74.0936H51.0849V75.6461H49.7969V69.3955H51.5211C53.2655 69.3955 54.3102 70.2276 54.3102 71.7598C54.3102 72.7339 53.8741 73.3528 53.1033 73.6978L54.4015 75.6461ZM51.4805 72.9673C52.5252 72.9673 52.9816 72.6324 52.9816 71.7496C52.9816 70.8668 52.5049 70.5218 51.4805 70.5218H51.0748V72.9673H51.4805Z" fill="white"/>
<path d="M58.9181 69.334H59.0297L61.8898 75.6454H60.5409L60.2468 74.9351H57.7112L57.4171 75.6454H56.1797L58.9283 69.334H58.9181ZM59.7802 73.8595L59.3339 72.7738C59.1514 72.3273 58.9587 71.6475 58.9587 71.6475C58.9587 71.6475 58.7761 72.3273 58.5936 72.7738L58.1473 73.8595H59.7904H59.7802Z" fill="white"/>
<path d="M64.66 70.5218H62.875V69.3955H67.7332V70.5218H65.9481V75.6461H64.66V70.5218Z" fill="white"/>
<path d="M71.374 69.3955H70.0859V75.6461H71.374V69.3955Z" fill="white"/>
<path d="M73.8555 72.5209C73.8555 70.6742 75.2957 69.3145 77.0909 69.3145C78.8861 69.3145 80.3263 70.6742 80.3263 72.5209C80.3263 74.3677 78.8962 75.7274 77.0909 75.7274C75.2855 75.7274 73.8555 74.3677 73.8555 72.5209ZM79.0078 72.5209C79.0078 71.354 78.237 70.4611 77.0909 70.4611C75.9448 70.4611 75.174 71.354 75.174 72.5209C75.174 73.6878 75.9448 74.5807 77.0909 74.5807C78.237 74.5807 79.0078 73.6878 79.0078 72.5209Z" fill="white"/>
<path d="M84.6451 72.7434C84.3307 72.4491 83.9047 71.891 83.9047 71.891C83.9047 71.891 83.996 72.581 83.996 73.0275V75.6454H82.7891V69.334H82.9108L86.065 72.2969C86.3693 72.581 86.8054 73.1493 86.8054 73.1493C86.8054 73.1493 86.7243 72.439 86.7243 72.0128V69.3847H87.9312V75.6962H87.7994L84.6451 72.7332V72.7434Z" fill="white"/>
<path d="M94.0195 69.3955H98.0562V70.5218H95.3076V72.5918H97.8026V73.7384H95.3076V75.6461H94.0195V69.3955Z" fill="white"/>
<path d="M105.123 75.6461H103.632L102.597 74.0631C102.475 74.0834 102.354 74.0936 102.232 74.0936H101.796V75.6461H100.508V69.3955H102.232C103.976 69.3955 105.031 70.2276 105.031 71.7598C105.031 72.7339 104.595 73.3528 103.824 73.6978L105.123 75.6461ZM102.202 72.9673C103.246 72.9673 103.713 72.6324 103.713 71.7496C103.713 70.8668 103.236 70.5218 102.202 70.5218H101.796V72.9673H102.202Z" fill="white"/>
<path d="M109.77 69.334H109.881L112.741 75.6454H111.392L111.098 74.9351H108.563L108.269 75.6454H107.031L109.78 69.334H109.77ZM110.632 73.8595L110.186 72.7738C110.003 72.3273 109.81 71.6475 109.81 71.6475C109.81 71.6475 109.628 72.3273 109.445 72.7738L108.999 73.8595H110.642H110.632Z" fill="white"/>
<path d="M116.817 72.7434C116.503 72.4491 116.077 71.891 116.077 71.891C116.077 71.891 116.168 72.581 116.168 73.0275V75.6454H114.961V69.334H115.083L118.237 72.2969C118.541 72.581 118.977 73.1493 118.977 73.1493C118.977 73.1493 118.896 72.439 118.896 72.0128V69.3847H120.103V75.6962H119.971L116.817 72.7332V72.7434Z" fill="white"/>
<path d="M132.449 69.334H132.561L135.421 75.6454H134.072L133.778 74.9351H131.242L130.948 75.6454H129.711L132.46 69.334H132.449ZM133.311 73.8595L132.865 72.7738C132.683 72.3273 132.49 71.6475 132.49 71.6475C132.49 71.6475 132.307 72.3273 132.125 72.7738L131.679 73.8595H133.322H133.311Z" fill="white"/>
<path d="M138.96 69.3955H137.672V75.6461H138.96V69.3955Z" fill="white"/>
<path d="M141.12 74.4184L142.174 73.8096C142.448 74.256 142.803 74.5909 143.442 74.5909C143.969 74.5909 144.314 74.3271 144.314 73.9516C144.314 73.5052 143.97 73.353 143.371 73.0993L143.047 72.9572C142.113 72.5615 141.505 72.0643 141.505 71.0191C141.505 70.0552 142.235 69.3145 143.391 69.3145C144.213 69.3145 144.801 69.5986 145.217 70.3393L144.213 70.9786C143.99 70.5828 143.757 70.4306 143.381 70.4306C143.006 70.4306 142.763 70.6742 142.763 70.9786C142.763 71.3641 143.006 71.5265 143.554 71.7599L143.878 71.8918C144.974 72.3586 145.582 72.8355 145.582 73.911C145.582 75.0678 144.669 75.7071 143.452 75.7071C142.235 75.7071 141.485 75.1388 141.109 74.388" fill="white"/>
<path d="M147.969 69.3955H152.107V70.5218H149.257V72.1149H151.772V73.2209H149.257V74.5197H152.239V75.6461H147.969V69.3955Z" fill="white"/>
<path d="M158.219 69.3955H160.136C162.053 69.3955 163.432 70.674 163.432 72.5208C163.432 74.3675 162.073 75.6461 160.136 75.6461H158.219V69.3955ZM160.075 74.5197C161.464 74.5197 162.103 73.6877 162.103 72.5208C162.103 71.3539 161.464 70.5218 160.075 70.5218H159.507V74.5096H160.075V74.5197Z" fill="white"/>
<path d="M170.449 69.334H170.561L173.421 75.6454H172.072L171.778 74.9351H169.242L168.948 75.6454H167.711L170.46 69.334H170.449ZM171.311 73.8595L170.865 72.7738C170.683 72.3273 170.49 71.6475 170.49 71.6475C170.49 71.6475 170.307 72.3273 170.125 72.7738L169.679 73.8595H171.322H171.311Z" fill="white"/>
<path d="M176.193 70.5218H174.418V69.3955H179.266V70.5218H177.481V75.6461H176.193V70.5218Z" fill="white"/>
<path d="M181.59 69.3955H182.878V72.5918H185.555V69.3955H186.844V75.6461H185.555V73.7384H182.878V75.6461H181.59V69.3955Z" fill="white"/>
<path d="M189.52 69.3955H190.808V74.5197H193.637V75.6461H189.52V69.3955Z" fill="white"/>
<path d="M204.316 70.5218H202.531V69.3955H207.379V70.5218H205.604V75.6461H204.316V70.5218Z" fill="white"/>
<path d="M211.022 69.3955H209.734V75.6461H211.022V69.3955Z" fill="white"/>
<path d="M213.182 74.4184L214.227 73.8096C214.501 74.256 214.866 74.5909 215.494 74.5909C216.022 74.5909 216.367 74.3271 216.367 73.9516C216.367 73.5052 216.022 73.353 215.423 73.0993L215.099 72.9572C214.166 72.5615 213.557 72.0643 213.557 71.0191C213.557 70.0552 214.288 69.3145 215.444 69.3145C216.265 69.3145 216.854 69.5986 217.269 70.3393L216.265 70.9786C216.042 70.5828 215.809 70.4306 215.434 70.4306C215.058 70.4306 214.815 70.6742 214.815 70.9786C214.815 71.3641 215.058 71.5265 215.606 71.7599L215.931 71.8918C217.026 72.3586 217.645 72.8355 217.645 73.911C217.645 75.0678 216.732 75.7071 215.515 75.7071C214.298 75.7071 213.547 75.1388 213.172 74.388" fill="white"/>
<path d="M220.039 69.3242H220.14L223.224 72.7133L226.256 69.3242H226.368V75.6458H225.131V73.3018C225.131 72.8757 225.181 72.206 225.181 72.206C225.181 72.206 224.806 72.7539 224.512 73.0888L223.274 74.4789H223.153L221.905 73.0888C221.611 72.7539 221.236 72.206 221.236 72.206C221.236 72.206 221.287 72.8757 221.287 73.3018V75.6458H220.049V69.3242H220.039Z" fill="white"/>
<path d="M229.031 69.3955H233.169V70.5218H230.319V72.1149H232.835V73.2209H230.319V74.5197H233.301V75.6461H229.031V69.3955Z" fill="white"/>
<path d="M28.4375 69.3955H32.5756V70.5218H29.7256V72.1149H32.2307V73.2209H29.7256V74.5197H32.7074V75.6461H28.4375V69.3955Z" fill="white"/>
<path d="M31.2419 67.0242L29.5977 67.5762L29.9074 68.4997L31.5516 67.9477L31.2419 67.0242Z" fill="white"/>
<path d="M42.9453 69.3955H47.0834V70.5218H44.2334V72.1149H46.7385V73.2209H44.2334V74.5197H47.2152V75.6461H42.9453V69.3955Z" fill="white"/>
<path d="M45.7497 67.0251L44.1055 67.5771L44.4152 68.5007L46.0595 67.9486L45.7497 67.0251Z" fill="white"/>
<path d="M196.051 69.3955H200.189V70.5218H197.339V72.1149H199.844V73.2209H197.339V74.5197H200.321V75.6461H196.051V69.3955Z" fill="white"/>
<path d="M199.154 67.9439L198.85 67.0205L197.207 67.5786L197.521 68.502L199.154 67.9439Z" fill="white"/>
<path d="M122.438 72.5209C122.438 70.6742 123.868 69.3145 125.663 69.3145C126.799 69.3145 127.6 69.7203 128.168 70.593L127.184 71.2931C126.89 70.8162 126.383 70.4712 125.663 70.4712C124.527 70.4712 123.766 71.3439 123.766 72.5209C123.766 73.698 124.527 74.5807 125.663 74.5807C126.474 74.5807 126.92 74.1952 127.275 73.6574L128.279 74.3474C127.732 75.1896 126.87 75.7274 125.663 75.7274C123.868 75.7274 122.438 74.3575 122.438 72.5108" fill="white"/>
<path d="M126.027 76.5064L124.383 77.0596L124.693 77.9829L126.337 77.4297L126.027 76.5064Z" fill="white"/>
<path d="M166.793 69.3812L165.148 69.9326L165.458 70.8562L167.102 70.3048L166.793 69.3812Z" fill="white"/>
</g>
<defs>
<clipPath id="clip0_2681_1791">
<rect width="253" height="78" fill="white"/>
</clipPath>
</defs>
</svg>
