<?xml version="1.0" encoding="UTF-8"?><svg id="b" xmlns="http://www.w3.org/2000/svg" viewBox="0 0 403.24 492.33"><defs><style>.n{letter-spacing:.1em;}.o{font-size:136.06px;}.o,.p,.q{fill:#fbcf15;}.o,.q{font-family:TrebuchetMS-Bold, 'Trebuchet MS';font-weight:700;}.p{stroke:#3c3c3c;stroke-linecap:round;stroke-linejoin:round;stroke-width:9px;}.r{letter-spacing:.06em;}.q{font-size:116.96px;}.s{letter-spacing:.1em;}.t{letter-spacing:.04em;}</style></defs><g id="c"><g id="d"><g id="e"><path id="f" class="p" d="M269.82,133.68c-72.44,92.25-181.12,111.22-181.12,111.22v-51.88s86.09,3.67,181.12-59.34Z"/><path id="g" class="p" d="M88.69,347.66v-60.14c132.74-59.41,181.12-153.84,181.12-153.84-37.75,133.29-181.12,213.98-181.12,213.98Z"/><path id="h" class="p" d="M269.82,133.68c11.89,205.78-181.12,323.57-181.12,323.57v-67.3c156.14-94.48,181.12-256.27,181.12-256.27Z"/></g><path id="i" class="p" d="M269.82,133.68l128.35,213.39h-132.75s28.14-101.86,4.4-213.39Z"/></g><line id="j" class="p" x1="67.02" y1="21.63" x2="67.02" y2="457.24"/></g><g id="k"><polygon id="l" class="p" points="4.5 44 67.07 67.15 67.07 21.16 4.5 44"/></g><g id="m"><text class="q" transform="translate(205.67 460.81) scale(.93 1)"><tspan class="s" x="0" y="0">PS</tspan><tspan class="r" x="151.83" y="0">L</tspan></text><text class="o" transform="translate(80.05 116.69) scale(1.14 1)"><tspan class="n" x="0" y="0">SM</tspan><tspan class="t" x="198.14" y="0">A</tspan></text></g></svg>